<svg xmlns="http://www.w3.org/2000/svg" width="1791.999" height="1791.999" fill-rule="evenodd" clip-rule="evenodd" image-rendering="optimizeQuality" shape-rendering="geometricPrecision" text-rendering="geometricPrecision" viewBox="0 0 47413.32 47413.32" id="delivery-person-going-to-deliver-gift">
  <rect width="47413.32" height="47413.32" fill="none"></rect>
  <polygon fill="#155f84" fill-rule="nonzero" points="23049.97 12128.73 23148.54 11150.9 20602.63 10121.02 20477.68 10896.04"></polygon>
  <path fill="#664624" fill-rule="nonzero" d="M22076.89 15360.55c2358.48,185.46 734.31,-2318.96 495.54,-4017.96l-41.63 -3505.69 -970.34 -241.42c0,0 -420.61,985.63 -1066.11,1607.79 -81.93,832.23 -174.92,1733.72 -223.51,1964.84 112.45,443.4 -552.48,4006.86 1806.05,4192.44z"></path>
  <path fill="#815932" fill-rule="nonzero" d="M23981.45 4944.74c417.82,932.72 -30.55,1642.1 274.86,2044.27 306.79,401.98 434.49,358.43 455.33,526.24 20.8,167.71 -281.82,232.39 -292.91,460.73 -13.88,277.21 -91.64,690.21 -95.78,979.64 -8.33,357.45 79.11,582.92 -201.3,740.34 -517.79,291.38 -1404.85,-35.55 -1907.36,-219.2 -714.93,-260.99 -1396.53,-1106.37 -1481.18,-1746.18 -505.29,-130.64 -2248.87,-1178.45 -1367.39,-2669.92 882.9,-1491.17 3831.4,-1867.1 4615.73,-115.92z"></path>
  <path fill-rule="nonzero" d="M23981.45 4944.74c-195.75,-121.04 -1703.31,-179.89 -1928.2,629.01 -187.39,675.47 12.5,973.67 -764.87,1349.45 -495.58,-566.79 -923.15,214.46 -534.47,454.64 86.07,52.33 43.05,272.07 43.05,272.07l292.91 886.08 -587.19 667.28c0,0 -1574.24,-493.48 -1722.74,-2313.41 -152.7,-1852.64 670.47,-2990.14 1818.51,-3148.64 2054.49,-283.89 3059.54,433.11 3383,1203.52z"></path>
  <path fill="#1e7dac" fill-rule="nonzero" d="M23989.79 4886.18c36.09,-320.67 -358.18,-1804.49 -971.75,-2175.02 -614.95,-371.61 -1936.5,-495.84 -2394.62,-382.02 -459.49,114.12 -1595,861.66 -1962.88,1496.47 -351.21,607.2 49.97,1930.67 140.2,2308.55 2093.38,-149.51 3387.17,-470.47 5189.05,-1247.98z"></path>
  <path fill="#18658c" fill-rule="nonzero" d="M21731.22 5689.64c0,0 1131.37,43.05 3058.16,-118.39 1447.87,-121.18 1626.96,-1138.59 1626.96,-1138.59l-2502.9 -114.11c0,0 -90.23,203.91 -673.29,610.93 -581.65,407.31 -1508.93,760.16 -1508.93,760.16z"></path>
  <path fill-rule="nonzero" d="M23984.21 6879.32c-8.3,135.49 -126.33,237.68 -260.95,228.08 -136.07,-9.57 -238.77,-127.3 -229.06,-262.76 9.71,-135.49 127.7,-237.54 263.74,-227.97 134.66,9.6 237.39,127.16 226.27,262.65z"></path>
  <path fill="#fff" fill-rule="nonzero" d="M24327.09 8834.74c25,-192.57 55.55,-404.13 68.05,-602.2l-738.52 31.24c0,0 295.66,429.92 670.47,570.96z"></path>
  <path fill="#815932" fill-rule="nonzero" d="M21335.57 7284.67c-51.35,385.79 -288.74,671.59 -524.72,638.73 -237.39,-32.65 -385.93,-371.91 -333.17,-757.55 52.77,-385.64 288.75,-671.74 526.14,-638.83 237.35,32.9 385.89,372.01 331.75,757.65z"></path>
  <path fill-rule="nonzero" d="M24146.62 6365.58l-986.97 32.18 0 -54.14c0,-139.77 145.75,-251.82 320.67,-250.01l687.14 -40.65 -20.84 312.62z"></path>
  <path fill="#1e7dac" fill-rule="nonzero" d="M20710.91 2345.52l-410.9 146.73c-68.05,24.71 -145.78,-11.67 -170.75,-80.92l0 0c-23.63,-69.43 11.09,-146.47 81.9,-171.18l409.52 -146.73c68.02,-24.71 147.12,11.67 170.75,80.95l0 0c24.97,69.4 -11.13,146.44 -80.52,171.15z"></path>
  <path fill-rule="nonzero" d="M19386.57 6581.84c1.38,274.58 -219.35,498.78 -494.21,500.84 -273.45,1.82 -499.71,-219.05 -499.71,-493.62 -2.79,-274.58 217.93,-498.92 492.79,-500.84 274.86,-1.96 498.34,219.05 501.13,493.62z"></path>
  <path fill-rule="nonzero" d="M19449.04 7433.75c1.38,274.61 -217.93,498.92 -492.79,500.73 -274.86,1.96 -499.75,-218.91 -501.13,-493.48 -2.79,-274.61 217.93,-498.92 492.79,-500.87 274.87,-1.96 498.34,219.05 501.13,493.62z"></path>
  <path fill-rule="nonzero" d="M19872.44 8143.54c2.76,274.57 -219.34,498.77 -494.2,500.88 -274.87,1.92 -498.34,-219.06 -501.13,-493.67 0,-274.57 220.72,-498.77 494.2,-500.84 274.87,-1.81 499.72,219.06 501.13,493.63z"></path>
  <path fill-rule="nonzero" d="M20488.77 8681.6c2.79,274.6 -219.31,498.91 -494.17,500.73 -274.86,2.06 -498.37,-218.92 -501.13,-493.52 -1.41,-274.58 220.72,-498.89 494.17,-500.84 274.87,-1.96 499.76,219.05 501.13,493.63z"></path>
  <path fill-rule="nonzero" d="M21187.04 8815.96c1.41,274.61 -219.31,498.78 -494.18,500.88 -274.86,1.92 -498.37,-219.06 -499.75,-493.52 -2.79,-274.72 219.31,-498.88 494.17,-500.98 273.49,-1.82 498.38,219.2 499.76,493.62z"></path>
  <path fill="#1e7dac" fill-rule="nonzero" d="M23313.75 12666.93l-714.93 -869.26 -2341.86 -1011.32c0,0 -548.35,857.23 -545.56,2413.64 1.38,1023.78 483.09,8861.18 483.09,8861.18l4494.94 0c0,0 16.64,-4631.78 0,-5654.88 -13.87,-831.94 -1375.68,-3739.36 -1375.68,-3739.36z"></path>
  <polygon fill="#155f84" fill-rule="nonzero" points="22619.65 12046.15 22718.22 11068.31 20170.9 10038.4 20047.36 10813.42"></polygon>
  <polygon fill="#0f5070" fill-rule="nonzero" points="23313.75 12666.93 22712.64 11124.95 22637.7 11873.19"></polygon>
  <polygon fill="#001932" fill-rule="nonzero" points="24592.24 23000.01 28894.22 33516.73 30396.23 42893.61 27812.82 42956.23 25545.94 34136.83 19426.83 24304.48"></polygon>
  <path fill="#132e42" fill-rule="nonzero" d="M20170.9 22061.17c0,0 -803.75,1574.09 -803.75,2937.53 0,557.51 -97.19,8254.7 -97.19,8254.7l-4493.25 8039.78 2143.06 1131.38 5860.92 -8552.44 1883.74 -11810.95 -4493.53 0z"></path>
  <path fill="#664624" fill-rule="nonzero" d="M24657.5 22061.17l-4486.61 0c0,0 -115.24,241.7 -194.35,427.27 -77.73,185.76 -202.67,511.57 -202.67,511.57l4818.37 0 65.26 -938.84z"></path>
  <polygon fill="#132e42" fill-rule="nonzero" points="21628.48 23000.01 21960.89 23000.01 21960.89 22061.2 21628.48 22061.2"></polygon>
  <path fill="#664624" fill-rule="nonzero" d="M13744.99 42966.48l730.05 -965.19c0,0 1557.67,1061.15 1803.4,1328.22 251.27,407.85 1309.04,457.68 1415.94,907.71 59.69,256.96 -258.19,1053.36 -258.19,1053.36 0,0 -1508.97,-157.13 -1969.84,-865.39 -462.14,-707 -1721.36,-1458.71 -1721.36,-1458.71z"></path>
  <path fill="#9d764b" fill-rule="nonzero" d="M13899.8 42758.11c0,0 899.92,637.89 1610.98,1530.21 710.73,893.73 2044.78,676.34 2044.78,676.34l-106.9 323.42c0,0 -1325.72,236.56 -2044.78,-674.93 -717.98,-912.86 -1658.89,-1646.67 -1658.89,-1646.67l154.81 -208.37z"></path>
  <polygon fill="#cf9e5f" fill-rule="nonzero" points="23472 18462.45 33663.27 18462.45 33663.27 10642.88 23472 10642.88"></polygon>
  <polygon fill="#b68b53" fill-rule="nonzero" points="23472 12626.53 33663.27 12626.53 33663.27 10642.88 23472 10642.88"></polygon>
  <polygon fill="#ac1e23" fill-rule="nonzero" points="28295.9 18463.97 28915.92 18463.97 28915.92 10642.88 28295.9 10642.88"></polygon>
  <polygon fill="#ac1e23" fill-rule="nonzero" points="23455.33 14522.52 33668.34 14522.52 33668.34 13902.67 23455.33 13902.67"></polygon>
  <polygon fill="#ac1e23" fill-rule="nonzero" points="28624.9 10671.98 25655.59 8532.22 24825.46 9734.8"></polygon>
  <polygon fill="#ac1e23" fill-rule="nonzero" points="31644.22 9065.57 28624.9 10671.98 32345.23 10138.64"></polygon>
  <polygon fill="#8c181d" fill-rule="nonzero" points="28624.9 10671.98 30163 8999.65 29071.89 8999.65"></polygon>
  <path fill="#664624" fill-rule="nonzero" d="M28451.39 45327.65l-313.74 -1168.45c0,0 1792.17,-580.23 2154.47,-612.3 476.16,52.47 1163.3,-752.95 1583.91,-561.1 240.14,109.8 674.67,849.98 674.67,849.98 0,0 -1050.85,1094.45 -1890.7,1025.31 -842.63,-67.76 -2208.61,466.56 -2208.61,466.56z"></path>
  <path fill="#9d764b" fill-rule="nonzero" d="M28380.59 45077.21c0,0 1057.81,-320.92 2198.89,-334.94 1141.09,-14.17 1787.97,-1201.75 1787.97,-1201.75l188.79 282.47c0,0 -626.07,1192.73 -1786.58,1201.75 -1160.51,8.91 -2318.27,302.91 -2318.27,302.91l-70.8 -250.44z"></path>
  <polygon fill="#0a4f6f" fill-rule="nonzero" points="27708.71 42660.96 30393.44 41983.54 30571.15 43503.45 28141.82 44181.02"></polygon>
  <path fill="#0a4f6f" fill-rule="nonzero" d="M24275.74 23000.01l-258.2 0c0,6.52 45.81,674.38 -309.57,1254.91 -402.57,658.98 -1064.74,808.21 -1202.15,832.63l0 -2087.54 -245.73 0 0 2341.17c0,0 126.33,8.59 245.73,0 117.99,-8.48 914.78,-143.25 1413.16,-957 397.02,-649.81 358.13,-1354.31 356.76,-1384.17z"></path>
  <polygon fill="#0a4f6f" fill-rule="nonzero" points="15161.48 40545.23 17229.35 42216.18 16371.46 43421.7 14361.21 41941.32"></polygon>
  <path fill="#815932" fill-rule="nonzero" d="M27705.95 19050.08l-315.12 -911.34 -4197.87 -177.28 -1210.48 -5085.47c-124.95,-948.96 -795.45,-1384.71 -1107.79,-1292.38 0,0 -788.49,203.08 -823.21,989.9 -34.68,786.68 295.7,1780.5 360.93,2140.99l1367.39 4949.84 5926.15 -614.26z"></path>
  <path fill="#155f84" fill-rule="nonzero" d="M20276.38 15107.35c242.94,11.13 782.95,-4.71 1114.71,-64.68 528.92,-96.21 1000.88,-368.72 1171.63,-542.66l-438.65 -1747.7c-249.86,-1084.99 -753.78,-1321.4 -1293.79,-1244.07 -541.39,77.15 -805.13,264.02 -839.85,1050.85 -34.71,786.79 285.95,2548.26 285.95,2548.26z"></path>
  <path fill="#fff" fill-rule="nonzero" d="M21275.89 14448.12c-308.16,51.35 -780.16,71.35 -1078.61,69.94 43.01,345.96 79.1,589.29 79.1,589.29 242.94,11.13 782.95,-4.71 1114.71,-64.68 528.92,-96.21 1000.88,-368.72 1171.63,-542.66l-133.24 -531.24c-201.3,152.41 -670.51,398.83 -1153.59,479.35z"></path>
  <path fill="#815932" fill-rule="nonzero" d="M27304.76 18404.29l1660.27 -452.39 583.02 141.72 991.17 361.33c0,0 -937.03,916.08 -1650.55,884.7 -712.14,-31.53 -1182.72,-289.57 -1182.72,-289.57l-401.19 -645.79z"></path>
  <path fill="#815932" fill-rule="nonzero" d="M29652.16 17707.15c0,0 -58.3,191.15 -392.85,293.74 -345.67,105.63 -437.28,-3.88 -437.28,-3.88 0,0 -134.66,318.31 -387.3,448.8 -251.28,130.61 -1025.85,-25.43 -1025.85,-25.43l-18.05 -281.64 1640.84 -561.79 620.49 130.2z"></path>
</svg>
