<svg xmlns="http://www.w3.org/2000/svg" xmlns:xlink="http://www.w3.org/1999/xlink" viewBox="0 0 480 480" id="snowman-and-gift">
  <defs>
    <linearGradient id="d" x1="267.76" x2="256.41" y1="113.22" y2="78.64" gradientUnits="userSpaceOnUse">
      <stop offset="0" stop-color="#f85032"></stop>
      <stop offset=".24" stop-color="#e9442d"></stop>
      <stop offset=".7" stop-color="#d33327"></stop>
      <stop offset="1" stop-color="#cc2d25"></stop>
    </linearGradient>
    <linearGradient id="e" x1="173.59" x2="271.07" y1="387.76" y2="294.8" gradientUnits="userSpaceOnUse">
      <stop offset="0" stop-color="#c9d6ff"></stop>
      <stop offset=".61" stop-color="#d6dcee"></stop>
      <stop offset="1" stop-color="#e2e2e2"></stop>
    </linearGradient>
    <linearGradient id="b" x1="187.8" x2="265.26" y1="283.1" y2="203.7" gradientUnits="userSpaceOnUse">
      <stop offset="0" stop-color="#c9d6ff"></stop>
      <stop offset=".25" stop-color="#d3dbf2"></stop>
      <stop offset=".63" stop-color="#dee0e6"></stop>
      <stop offset="1" stop-color="#e2e2e2"></stop>
    </linearGradient>
    <linearGradient id="f" x1="212.06" x2="261.29" y1="185.5" y2="118.85" gradientUnits="userSpaceOnUse">
      <stop offset="0" stop-color="#c9d6ff"></stop>
      <stop offset=".28" stop-color="#d5dcef"></stop>
      <stop offset=".61" stop-color="#dfe0e5"></stop>
      <stop offset="1" stop-color="#e2e2e2"></stop>
    </linearGradient>
    <linearGradient id="g" x1="207.04" x2="243.17" y1="149.77" y2="149.77" gradientUnits="userSpaceOnUse">
      <stop offset="0" stop-color="#f5d020"></stop>
      <stop offset=".28" stop-color="#f5a918"></stop>
      <stop offset=".89" stop-color="#f54906"></stop>
      <stop offset="1" stop-color="#f53803"></stop>
    </linearGradient>
    <linearGradient id="a" x1="236.68" x2="231.04" y1="115.56" y2="92.24" gradientUnits="userSpaceOnUse">
      <stop offset="0" stop-color="#f85032"></stop>
      <stop offset="1" stop-color="#e73827"></stop>
    </linearGradient>
    <linearGradient id="c" x1="265" x2="225.33" y1="179.08" y2="105.93" gradientUnits="userSpaceOnUse">
      <stop offset="0" stop-color="#f53803"></stop>
      <stop offset=".28" stop-color="#f55e0a"></stop>
      <stop offset=".89" stop-color="#f5be1c"></stop>
      <stop offset="1" stop-color="#f5d020"></stop>
    </linearGradient>
    <linearGradient xlink:href="#a" id="h" x1="243.41" x2="266.65" y1="189.97" y2="242.05"></linearGradient>
    <linearGradient xlink:href="#b" id="i" x1="274.19" x2="286.67" y1="101.03" y2="101.03"></linearGradient>
    <linearGradient xlink:href="#c" id="j" x1="184.5" x2="298.98" y1="456.31" y2="388.6"></linearGradient>
    <linearGradient xlink:href="#a" id="k" x1="328.02" x2="288.43" y1="323.41" y2="362.36"></linearGradient>
    <linearGradient xlink:href="#a" id="l" x1="313.21" x2="317.37" y1="301.52" y2="301.52"></linearGradient>
    <linearGradient xlink:href="#a" id="m" x1="303.35" x2="312.8" y1="303.84" y2="303.84"></linearGradient>
    <linearGradient xlink:href="#a" id="n" x1="317.78" x2="327.23" y1="303.84" y2="303.84"></linearGradient>
    <linearGradient xlink:href="#c" id="o" x1="407.6" x2="172.62" y1="236.32" y2="402.87"></linearGradient>
  </defs>
  <path fill="#9e9e9e" d="M111.1,251.75c-1.41,0-2.77-.8-3.41-2.17-.87-1.88-.06-4.11,1.82-4.99l69.76-32.48c1.88-.87,4.11-.06,4.99,1.82,.87,1.88,.06,4.11-1.82,4.99l-69.76,32.48c-.51,.24-1.05,.35-1.58,.35Z"></path>
  <path fill="#9e9e9e" d="M145.98 234.26c-.43 0-.86-.07-1.28-.23l-19.2-6.98c-1.95-.71-2.95-2.86-2.25-4.81.71-1.95 2.86-2.95 4.81-2.25l19.2 6.98c1.95.71 2.95 2.86 2.25 4.81-.55 1.52-1.99 2.47-3.53 2.47ZM129.16 256.35c-.46 0-.93-.09-1.39-.27-1.93-.77-2.86-2.95-2.1-4.88l6.38-15.98c.77-1.93 2.95-2.86 4.88-2.1 1.93.77 2.86 2.95 2.1 4.88l-6.38 15.98c-.59 1.47-2 2.36-3.49 2.36Z"></path>
  <path fill="url(#d)" d="M239.44,80.31c14.48-7.97,44.41,4.39,40.6,20.58-12.87,12.19-44-16-40.6-20.58Z"></path>
  <ellipse cx="240" cy="324.43" fill="url(#e)" rx="84.54" ry="72.36"></ellipse>
  <ellipse cx="240" cy="229.59" fill="url(#b)" rx="68.73" ry="59.33"></ellipse>
  <ellipse cx="239.95" cy="147.73" fill="url(#f)" rx="46.21" ry="43.32"></ellipse>
  <circle cx="222.26" cy="138.34" r="3.61" fill="#383838"></circle>
  <circle cx="253.64" cy="138.34" r="3.61" fill="#383838"></circle>
  <path fill="url(#g)" d="M243.17,149.67c0,.07,0,.13,0,.2-.03,5.24-5.12,8.98-10.17,7.56l-25.63-7.22c-.44-.12-.44-.75,0-.88l25.63-7.22c5.05-1.42,10.14,2.32,10.17,7.56Z"></path>
  <path fill="url(#a)" d="M277.97,118.98l5.71,5.5c-.79-2.83-1.85-5.61-3.12-8.07-.91-2.13-1.89-3.97-2.91-5.16l-16.73-27.51c-6.89-14.75-40.56,1.19-51.8,14.39-7.94,9.32-12.37,21.97-13.92,31.28l7.41-8.45c24.31-19.38,49.43-20.29,75.36-1.99Z"></path>
  <path fill="url(#c)" d="M277.97,118.98c-25.94-18.31-51.05-17.4-75.36,1.99l-7.41,8.45c-2.06,2.87-1.18,7-.48,9.41l9.41-10.51c25.66-16.23,48.63-15.33,74.29,.93l6.66,9.11c1.04-5.07,1.99-9.27-1.4-13.86l-5.71-5.5Z"></path>
  <path fill="url(#h)" d="M300.05,186.01c0-8.69-7.05-15.74-15.74-15.74h-85.33c-8.69,0-15.74,7.05-15.74,15.74s7.05,15.74,15.74,15.74h58.41v39.35l14.87-14.87,14.87,14.87v-39.62c7.35-1.33,12.93-7.74,12.93-15.48Z"></path>
  <circle cx="280.43" cy="101.03" r="6.24" fill="url(#i)"></circle>
  <path fill="#9e9e9e" d="M368.9,251.75c-.53,0-1.07-.11-1.58-.35l-69.76-32.48c-1.88-.88-2.69-3.11-1.82-4.99,.88-1.88,3.11-2.69,4.99-1.82l69.76,32.48c1.88,.88,2.69,3.11,1.82,4.99-.64,1.37-1.99,2.17-3.41,2.17Z"></path>
  <path fill="#9e9e9e" d="M334.02 234.26c-1.53 0-2.97-.95-3.53-2.47-.71-1.95.3-4.1 2.25-4.81l19.2-6.98c1.95-.71 4.1.3 4.81 2.25.71 1.95-.3 4.1-2.25 4.81l-19.2 6.98c-.42.15-.86.23-1.28.23ZM350.84 256.35c-1.49 0-2.9-.89-3.49-2.36l-6.38-15.98c-.77-1.93.17-4.11 2.1-4.88 1.92-.77 4.11.17 4.88 2.1l6.38 15.98c.77 1.93-.17 4.11-2.1 4.88-.46.18-.93.27-1.39.27Z"></path>
  <rect width="93.84" height="52" x="253.19" y="361.93" fill="url(#j)"></rect>
  <rect width="1.41" height="52" x="299.41" y="361.93" fill="#fff"></rect>
  <rect width="1.41" height="93.84" x="299.41" y="341.01" fill="#fff" transform="rotate(90 300.12 387.93)"></rect>
  <path fill="#fff" d="M312.88,400.25c-.19,0-.38-.08-.53-.23-.11-.11-5.24-5.46-11.66-11.07-14.68-.33-22.81-4.26-23.52-11.38-.08-.78,.19-1.56,.75-2.12,.56-.58,1.34-.88,2.15-.83,10.61,.72,32.41,23.43,33.33,24.4,.28,.29,.27,.75-.02,1.03-.14,.13-.32,.2-.5,.2Zm-32.99-24.18c-.34,0-.67,.14-.92,.39-.26,.26-.38,.61-.34,.97,.74,7.43,11.01,9.59,20.3,10.01-6.6-5.61-14.16-11.03-18.96-11.36-.03,0-.06,0-.09,0Z"></path>
  <path fill="#fff" d="M286.85,400.05c-.29-.28-.3-.74-.02-1.03,.92-.97,22.72-23.68,33.33-24.4,.81-.06,1.59,.25,2.15,.83,.55,.57,.82,1.34,.75,2.12-.71,7.12-8.84,11.05-23.52,11.38-6.42,5.61-11.55,10.96-11.66,11.07-.14,.15-.34,.23-.53,.23-.18,0-.36-.07-.5-.2Zm33.41-23.97c-4.8,.33-12.36,5.75-18.96,11.36,9.29-.42,19.57-2.58,20.3-10.01,.04-.36-.09-.7-.34-.97-.24-.25-.57-.39-.92-.39-.03,0-.06,0-.09,0Z"></path>
  <rect width="52" height="52" x="289.29" y="309.93" fill="url(#k)"></rect>
  <rect width="1.88" height="52" x="314.35" y="309.93" fill="#fff"></rect>
  <rect width="1.88" height="52" x="314.35" y="309.93" fill="#fff" transform="rotate(90 315.29 335.93)"></rect>
  <path fill="url(#l)" d="M315.29,294.84c-3.08,4.4-2.46,8.87,0,13.37,2.46-4.5,3.08-8.97,0-13.37Z"></path>
  <path fill="url(#m)" d="M303.35,299.12c.93,5.29,4.53,8.01,9.45,9.45-1.45-4.92-4.16-8.52-9.45-9.45Z"></path>
  <path fill="url(#n)" d="M327.23,299.12c-.93,5.29-4.53,8.01-9.45,9.45,1.45-4.92,4.16-8.52,9.45-9.45Z"></path>
  <rect width="70.38" height="86.45" x="182.81" y="327.48" fill="url(#o)"></rect>
  <rect width="1.41" height="70.38" x="217.3" y="335.51" fill="#fff" transform="rotate(90 218.005 370.705)"></rect>
  <rect width="1.41" height="86.45" x="217.3" y="327.48" fill="#fff" transform="rotate(180 218.005 370.705)"></rect>
  <path fill="#fff" d="M230.77,383.52c-.19,0-.38-.08-.53-.23-.11-.11-5.24-5.46-11.66-11.07-14.68-.33-22.81-4.26-23.52-11.38-.08-.78,.19-1.56,.75-2.12,.56-.58,1.34-.88,2.15-.83,10.61,.72,32.41,23.43,33.33,24.4,.28,.29,.27,.75-.02,1.03-.14,.13-.32,.2-.5,.2Zm-32.99-24.18c-.34,0-.67,.14-.92,.39-.26,.26-.38,.61-.34,.97,.74,7.43,11.01,9.59,20.3,10.01-6.6-5.61-14.16-11.03-18.96-11.36-.03,0-.06,0-.09,0Z"></path>
  <path fill="#fff" d="M204.74,383.32c-.29-.28-.3-.74-.02-1.03,.92-.97,22.72-23.68,33.33-24.4,.81-.06,1.59,.25,2.15,.83,.55,.57,.82,1.34,.75,2.12-.71,7.12-8.84,11.05-23.52,11.38-6.42,5.61-11.55,10.96-11.66,11.07-.14,.15-.34,.23-.53,.23-.18,0-.36-.07-.5-.2Zm33.41-23.97c-4.8,.33-12.36,5.75-18.96,11.36,9.29-.42,19.57-2.58,20.3-10.01,.04-.36-.09-.7-.34-.97-.24-.25-.57-.39-.92-.39-.03,0-.06,0-.09,0Z"></path>
  <rect width="480" height="480" fill="none"></rect>
</svg>
